<svg id="visual" viewBox="0 0 960 100" width="960" height="100" xmlns="http://www.w3.org/2000/svg" xmlns:xlink="http://www.w3.org/1999/xlink" version="1.1"><rect x="0" y="0" width="960" height="100" fill="#f8f7da"></rect><path d="M0 75L20 68.3C40 61.7 80 48.3 120 46.7C160 45 200 55 240 57.3C280 59.7 320 54.3 360 54C400 53.7 440 58.3 480 55.5C520 52.7 560 42.3 600 38.2C640 34 680 36 720 43.3C760 50.7 800 63.3 840 61.3C880 59.3 920 42.7 940 34.3L960 26L960 101L940 101C920 101 880 101 840 101C800 101 760 101 720 101C680 101 640 101 600 101C560 101 520 101 480 101C440 101 400 101 360 101C320 101 280 101 240 101C200 101 160 101 120 101C80 101 40 101 20 101L0 101Z" fill="#02020e" stroke-linecap="round" stroke-linejoin="miter"></path></svg>