<svg id="visual" viewBox="0 0 960 300" width="960" height="300" xmlns="http://www.w3.org/2000/svg" xmlns:xlink="http://www.w3.org/1999/xlink" version="1.1"><rect x="0" y="0" width="960" height="300" fill="#02020e"></rect><path d="M0 93L22.8 93.2C45.7 93.3 91.3 93.7 137 91.7C182.7 89.7 228.3 85.3 274 79.7C319.7 74 365.3 67 411.2 68.3C457 69.7 503 79.3 548.8 81C594.7 82.7 640.3 76.3 686 71.7C731.7 67 777.3 64 823 61.7C868.7 59.3 914.3 57.7 937.2 56.8L960 56L960 301L937.2 301C914.3 301 868.7 301 823 301C777.3 301 731.7 301 686 301C640.3 301 594.7 301 548.8 301C503 301 457 301 411.2 301C365.3 301 319.7 301 274 301C228.3 301 182.7 301 137 301C91.3 301 45.7 301 22.8 301L0 301Z" fill="#fcaf3c"></path><path d="M0 129L22.8 123.5C45.7 118 91.3 107 137 105.5C182.7 104 228.3 112 274 109.3C319.7 106.7 365.3 93.3 411.2 87.3C457 81.3 503 82.7 548.8 87.8C594.7 93 640.3 102 686 105.5C731.7 109 777.3 107 823 110.5C868.7 114 914.3 123 937.2 127.5L960 132L960 301L937.2 301C914.3 301 868.7 301 823 301C777.3 301 731.7 301 686 301C640.3 301 594.7 301 548.8 301C503 301 457 301 411.2 301C365.3 301 319.7 301 274 301C228.3 301 182.7 301 137 301C91.3 301 45.7 301 22.8 301L0 301Z" fill="#f7c05b"></path><path d="M0 165L22.8 163.2C45.7 161.3 91.3 157.7 137 155.2C182.7 152.7 228.3 151.3 274 150.5C319.7 149.7 365.3 149.3 411.2 144C457 138.7 503 128.3 548.8 123.2C594.7 118 640.3 118 686 120.8C731.7 123.7 777.3 129.3 823 136.5C868.7 143.7 914.3 152.3 937.2 156.7L960 161L960 301L937.2 301C914.3 301 868.7 301 823 301C777.3 301 731.7 301 686 301C640.3 301 594.7 301 548.8 301C503 301 457 301 411.2 301C365.3 301 319.7 301 274 301C228.3 301 182.7 301 137 301C91.3 301 45.7 301 22.8 301L0 301Z" fill="#f4d079"></path><path d="M0 158L22.8 165.8C45.7 173.7 91.3 189.3 137 196.5C182.7 203.7 228.3 202.3 274 195C319.7 187.7 365.3 174.3 411.2 173.7C457 173 503 185 548.8 192C594.7 199 640.3 201 686 196.2C731.7 191.3 777.3 179.7 823 173C868.7 166.3 914.3 164.7 937.2 163.8L960 163L960 301L937.2 301C914.3 301 868.7 301 823 301C777.3 301 731.7 301 686 301C640.3 301 594.7 301 548.8 301C503 301 457 301 411.2 301C365.3 301 319.7 301 274 301C228.3 301 182.7 301 137 301C91.3 301 45.7 301 22.8 301L0 301Z" fill="#f3de99"></path><path d="M0 236L22.8 229.8C45.7 223.7 91.3 211.3 137 207.7C182.7 204 228.3 209 274 209.2C319.7 209.3 365.3 204.7 411.2 204.7C457 204.7 503 209.3 548.8 215.8C594.7 222.3 640.3 230.7 686 233.8C731.7 237 777.3 235 823 234.8C868.7 234.7 914.3 236.3 937.2 237.2L960 238L960 301L937.2 301C914.3 301 868.7 301 823 301C777.3 301 731.7 301 686 301C640.3 301 594.7 301 548.8 301C503 301 457 301 411.2 301C365.3 301 319.7 301 274 301C228.3 301 182.7 301 137 301C91.3 301 45.7 301 22.8 301L0 301Z" fill="#f4ebba"></path><path d="M0 240L22.8 239.7C45.7 239.3 91.3 238.7 137 239.7C182.7 240.7 228.3 243.3 274 247.2C319.7 251 365.3 256 411.2 256.7C457 257.3 503 253.7 548.8 252.7C594.7 251.7 640.3 253.3 686 257.2C731.7 261 777.3 267 823 263.8C868.7 260.7 914.3 248.3 937.2 242.2L960 236L960 301L937.2 301C914.3 301 868.7 301 823 301C777.3 301 731.7 301 686 301C640.3 301 594.7 301 548.8 301C503 301 457 301 411.2 301C365.3 301 319.7 301 274 301C228.3 301 182.7 301 137 301C91.3 301 45.7 301 22.8 301L0 301Z" fill="#f8f7da"></path></svg>