<svg id="visual" viewBox="0 0 900 100" width="900" height="100" xmlns="http://www.w3.org/2000/svg" xmlns:xlink="http://www.w3.org/1999/xlink" version="1.1"><rect x="0" y="0" width="900" height="100" fill="#02020e"></rect><path d="M0 41L18.8 37.7C37.7 34.3 75.3 27.7 112.8 26C150.3 24.3 187.7 27.7 225.2 28.7C262.7 29.7 300.3 28.3 337.8 25C375.3 21.7 412.7 16.3 450.2 18.3C487.7 20.3 525.3 29.7 562.8 31.3C600.3 33 637.7 27 675.2 25.5C712.7 24 750.3 27 787.8 25.7C825.3 24.3 862.7 18.7 881.3 15.8L900 13L900 101L881.3 101C862.7 101 825.3 101 787.8 101C750.3 101 712.7 101 675.2 101C637.7 101 600.3 101 562.8 101C525.3 101 487.7 101 450.2 101C412.7 101 375.3 101 337.8 101C300.3 101 262.7 101 225.2 101C187.7 101 150.3 101 112.8 101C75.3 101 37.7 101 18.8 101L0 101Z" fill="#fa7268"></path><path d="M0 46L18.8 43.2C37.7 40.3 75.3 34.7 112.8 32.3C150.3 30 187.7 31 225.2 35C262.7 39 300.3 46 337.8 46C375.3 46 412.7 39 450.2 38.7C487.7 38.3 525.3 44.7 562.8 47.2C600.3 49.7 637.7 48.3 675.2 45.3C712.7 42.3 750.3 37.7 787.8 40.3C825.3 43 862.7 53 881.3 58L900 63L900 101L881.3 101C862.7 101 825.3 101 787.8 101C750.3 101 712.7 101 675.2 101C637.7 101 600.3 101 562.8 101C525.3 101 487.7 101 450.2 101C412.7 101 375.3 101 337.8 101C300.3 101 262.7 101 225.2 101C187.7 101 150.3 101 112.8 101C75.3 101 37.7 101 18.8 101L0 101Z" fill="#eb5967"></path><path d="M0 56L18.8 57.8C37.7 59.7 75.3 63.3 112.8 62.8C150.3 62.3 187.7 57.7 225.2 56C262.7 54.3 300.3 55.7 337.8 59.3C375.3 63 412.7 69 450.2 70.8C487.7 72.7 525.3 70.3 562.8 67.3C600.3 64.3 637.7 60.7 675.2 62.7C712.7 64.7 750.3 72.3 787.8 73.2C825.3 74 862.7 68 881.3 65L900 62L900 101L881.3 101C862.7 101 825.3 101 787.8 101C750.3 101 712.7 101 675.2 101C637.7 101 600.3 101 562.8 101C525.3 101 487.7 101 450.2 101C412.7 101 375.3 101 337.8 101C300.3 101 262.7 101 225.2 101C187.7 101 150.3 101 112.8 101C75.3 101 37.7 101 18.8 101L0 101Z" fill="#da3f67"></path><path d="M0 91L18.8 90C37.7 89 75.3 87 112.8 83.7C150.3 80.3 187.7 75.7 225.2 72.7C262.7 69.7 300.3 68.3 337.8 69.5C375.3 70.7 412.7 74.3 450.2 75.3C487.7 76.3 525.3 74.7 562.8 74C600.3 73.3 637.7 73.7 675.2 73.7C712.7 73.7 750.3 73.3 787.8 74.7C825.3 76 862.7 79 881.3 80.5L900 82L900 101L881.3 101C862.7 101 825.3 101 787.8 101C750.3 101 712.7 101 675.2 101C637.7 101 600.3 101 562.8 101C525.3 101 487.7 101 450.2 101C412.7 101 375.3 101 337.8 101C300.3 101 262.7 101 225.2 101C187.7 101 150.3 101 112.8 101C75.3 101 37.7 101 18.8 101L0 101Z" fill="#c62368"></path></svg>