<svg id="visual" viewBox="0 0 960 100" width="960" height="100" xmlns="http://www.w3.org/2000/svg" xmlns:xlink="http://www.w3.org/1999/xlink" version="1.1"><rect x="0" y="0" width="960" height="100" fill="#02020e"></rect><path d="M0 76L13.3 77.5C26.7 79 53.3 82 80 84.5C106.7 87 133.3 89 160 90.2C186.7 91.3 213.3 91.7 240 89.5C266.7 87.3 293.3 82.7 320 81.2C346.7 79.7 373.3 81.3 400 83.2C426.7 85 453.3 87 480 86C506.7 85 533.3 81 560 78.8C586.7 76.7 613.3 76.3 640 77.8C666.7 79.3 693.3 82.7 720 85.3C746.7 88 773.3 90 800 89.5C826.7 89 853.3 86 880 85.7C906.7 85.3 933.3 87.7 946.7 88.8L960 90L960 101L946.7 101C933.3 101 906.7 101 880 101C853.3 101 826.7 101 800 101C773.3 101 746.7 101 720 101C693.3 101 666.7 101 640 101C613.3 101 586.7 101 560 101C533.3 101 506.7 101 480 101C453.3 101 426.7 101 400 101C373.3 101 346.7 101 320 101C293.3 101 266.7 101 240 101C213.3 101 186.7 101 160 101C133.3 101 106.7 101 80 101C53.3 101 26.7 101 13.3 101L0 101Z" fill="#f8f7da" stroke-linecap="round" stroke-linejoin="miter"></path></svg>